<svg id="visual" viewBox="0 0 960 540" width="960" height="540" xmlns="http://www.w3.org/2000/svg" xmlns:xlink="http://www.w3.org/1999/xlink" version="1.1"><rect x="0" y="0" width="960" height="540" fill="#ffffff"></rect><path d="M0 217L22.8 214.7C45.7 212.3 91.3 207.7 137 197.3C182.7 187 228.3 171 274 171.7C319.7 172.3 365.3 189.7 411.2 187.2C457 184.7 503 162.3 548.8 158.5C594.7 154.7 640.3 169.3 686 170.2C731.7 171 777.3 158 823 161.7C868.7 165.3 914.3 185.7 937.2 195.8L960 206L960 0L937.2 0C914.3 0 868.7 0 823 0C777.3 0 731.7 0 686 0C640.3 0 594.7 0 548.8 0C503 0 457 0 411.2 0C365.3 0 319.7 0 274 0C228.3 0 182.7 0 137 0C91.3 0 45.7 0 22.8 0L0 0Z" fill="#fa7268"></path><path d="M0 143L22.8 138.5C45.7 134 91.3 125 137 128.7C182.7 132.3 228.3 148.7 274 157.5C319.7 166.3 365.3 167.7 411.2 163.7C457 159.7 503 150.3 548.8 147.2C594.7 144 640.3 147 686 142.3C731.7 137.7 777.3 125.3 823 126.7C868.7 128 914.3 143 937.2 150.5L960 158L960 0L937.2 0C914.3 0 868.7 0 823 0C777.3 0 731.7 0 686 0C640.3 0 594.7 0 548.8 0C503 0 457 0 411.2 0C365.3 0 319.7 0 274 0C228.3 0 182.7 0 137 0C91.3 0 45.7 0 22.8 0L0 0Z" fill="#ef5f67"></path><path d="M0 80L22.8 83.7C45.7 87.3 91.3 94.7 137 98.8C182.7 103 228.3 104 274 109C319.7 114 365.3 123 411.2 126C457 129 503 126 548.8 127.5C594.7 129 640.3 135 686 128.2C731.7 121.3 777.3 101.7 823 92.2C868.7 82.7 914.3 83.3 937.2 83.7L960 84L960 0L937.2 0C914.3 0 868.7 0 823 0C777.3 0 731.7 0 686 0C640.3 0 594.7 0 548.8 0C503 0 457 0 411.2 0C365.3 0 319.7 0 274 0C228.3 0 182.7 0 137 0C91.3 0 45.7 0 22.8 0L0 0Z" fill="#e34c67"></path><path d="M0 51L22.8 55.2C45.7 59.3 91.3 67.7 137 74.2C182.7 80.7 228.3 85.3 274 84C319.7 82.7 365.3 75.3 411.2 71C457 66.7 503 65.3 548.8 65.3C594.7 65.3 640.3 66.7 686 65C731.7 63.3 777.3 58.7 823 65C868.7 71.3 914.3 88.7 937.2 97.3L960 106L960 0L937.2 0C914.3 0 868.7 0 823 0C777.3 0 731.7 0 686 0C640.3 0 594.7 0 548.8 0C503 0 457 0 411.2 0C365.3 0 319.7 0 274 0C228.3 0 182.7 0 137 0C91.3 0 45.7 0 22.8 0L0 0Z" fill="#d53867"></path><path d="M0 44L22.8 41.2C45.7 38.3 91.3 32.7 137 32.7C182.7 32.7 228.3 38.3 274 43.2C319.7 48 365.3 52 411.2 54.8C457 57.7 503 59.3 548.8 54.8C594.7 50.3 640.3 39.7 686 38.2C731.7 36.7 777.3 44.3 823 44.2C868.7 44 914.3 36 937.2 32L960 28L960 0L937.2 0C914.3 0 868.7 0 823 0C777.3 0 731.7 0 686 0C640.3 0 594.7 0 548.8 0C503 0 457 0 411.2 0C365.3 0 319.7 0 274 0C228.3 0 182.7 0 137 0C91.3 0 45.7 0 22.8 0L0 0Z" fill="#c62368"></path></svg>